<svg width="4656" height="180" viewBox="0 0 4656 180" fill="none" xmlns="http://www.w3.org/2000/svg">
<path d="M521.119 45.7986H524.537V64.2628H521.953C520.647 61.5397 519.23 59.1501 517.702 57.0939C516.201 55.0099 514.603 53.2871 512.909 51.9256C511.214 50.5362 509.435 49.5081 507.574 48.8413C505.712 48.1466 503.711 47.7993 501.572 47.7993C498.682 47.7993 496.056 48.4523 493.694 49.7582C491.332 51.0364 489.318 52.8842 487.651 55.3016C485.983 57.6913 484.677 60.6088 483.733 64.0544C482.816 67.4999 482.357 71.1816 482.357 75.0995C482.357 80.5735 483.274 85.4361 485.108 89.6874C486.942 93.9388 489.498 97.2592 492.777 99.6489C496.084 102.011 499.835 103.192 504.031 103.192C506.615 103.192 509.102 102.775 511.491 101.941C513.909 101.08 516.215 99.7878 518.41 98.0651C520.605 96.3145 522.648 94.1472 524.537 91.563L526.996 92.9384C523.856 97.4676 520.091 100.885 515.701 103.192C511.311 105.47 506.254 106.609 500.53 106.609C496.084 106.609 491.985 105.831 488.234 104.275C484.483 102.719 481.246 100.552 478.523 97.7733C475.8 94.9669 473.702 91.7158 472.229 88.0202C470.784 84.3246 470.062 80.4206 470.062 76.3082C470.062 71.8624 470.854 67.7361 472.437 63.9293C474.021 60.0948 476.203 56.8021 478.981 54.0512C481.788 51.3004 485.025 49.1886 488.693 47.7159C492.388 46.2154 496.306 45.4652 500.446 45.4652C502.002 45.4652 503.447 45.5902 504.781 45.8403C506.143 46.0626 507.754 46.4238 509.616 46.924C511.478 47.4242 512.728 47.7576 513.367 47.9243C514.034 48.0632 514.798 48.1327 515.659 48.1327C517.855 48.1327 519.675 47.3547 521.119 45.7986ZM519.494 56.3019L519.244 49.2164C517.938 49.7999 516.562 50.0917 515.118 50.0917C514.423 50.0917 513.77 50.0361 513.159 49.9249C514.576 51.0086 515.757 52.0645 516.701 53.0926C517.646 54.0929 518.577 55.1627 519.494 56.3019ZM491.985 47.6326C487.678 49.272 484.149 51.2309 481.399 53.5094C479.815 54.8432 478.412 56.3436 477.189 58.0108C475.966 59.678 474.924 61.4563 474.063 63.3458C473.229 65.2353 472.576 67.2776 472.104 69.4727C471.659 71.6401 471.437 73.7658 471.437 75.8497C471.437 80.8513 472.465 85.4778 474.521 89.7291C476.578 93.9527 479.648 97.4676 483.733 100.274C487.817 103.053 492.68 104.762 498.321 105.401C494.625 104.428 491.249 102.997 488.192 101.108C485.164 99.2182 482.58 96.9536 480.44 94.3139C478.328 91.6742 476.73 88.8122 475.647 85.7278C474.591 82.6158 474.063 79.3786 474.063 76.0165C474.063 73.2378 474.521 70.3202 475.438 67.2637C476.355 64.2072 477.634 61.498 479.273 59.1362C481.162 56.4409 483.08 54.2735 485.025 52.6341C486.998 50.9947 489.318 49.3275 491.985 47.6326ZM461.848 105.401H427.838V103.108H428.796C431.38 103.108 433.228 102.761 434.34 102.066C435.479 101.344 436.16 100.413 436.382 99.2738C436.604 98.1067 436.715 96.245 436.715 93.6887V56.7604C436.715 54.6209 436.535 53.0231 436.173 51.9672C435.84 50.8836 435.062 50.1056 433.839 49.6332C432.617 49.133 430.616 48.8829 427.838 48.8829V46.5906H460.473C463.363 46.5906 466.016 46.9796 468.434 47.7576C470.851 48.5078 472.893 49.5637 474.561 50.9253C476.228 52.259 477.52 53.8289 478.437 55.6351C479.381 57.4412 479.854 59.4001 479.854 61.5119C479.854 63.7904 479.27 65.8883 478.103 67.8056C476.936 69.695 475.158 71.2928 472.768 72.5987C470.379 73.8769 467.475 74.7661 464.057 75.2662C469.67 76.0165 473.977 77.767 476.978 80.5179C479.979 83.241 481.479 86.6448 481.479 90.7294C481.479 92.8412 481.021 94.8001 480.104 96.6063C479.187 98.3846 477.867 99.9406 476.144 101.274C474.422 102.58 472.338 103.595 469.892 104.317C467.447 105.039 464.766 105.401 461.848 105.401ZM440.758 96.2728V54.4264C440.758 52.5369 440.383 51.1475 439.633 50.2584C438.883 49.3414 437.493 48.8829 435.465 48.8829H434.59C435.923 49.272 436.84 49.9388 437.341 50.8836C437.841 51.8005 438.091 53.301 438.091 55.385V96.5229C438.091 98.6347 437.813 100.135 437.257 101.024C436.729 101.913 435.84 102.608 434.59 103.108H435.798C437.966 103.108 439.327 102.469 439.883 101.191C440.466 99.8851 440.758 98.2457 440.758 96.2728ZM447.135 73.9742H454.929C458.681 73.9742 461.431 73.5296 463.182 72.6404C464.794 71.8068 466.086 70.4036 467.058 68.4308C468.058 66.4301 468.559 64.1794 468.559 61.6786C468.559 59.678 468.239 57.8163 467.6 56.0935C466.989 54.343 466.113 52.912 464.974 51.8005C463.779 50.5501 462.46 49.7582 461.015 49.4248C459.598 49.0636 457.68 48.8829 455.263 48.8829C452.095 48.8829 449.942 49.3692 448.802 50.3417C447.691 51.3143 447.135 52.9953 447.135 55.385V73.9742ZM447.135 76.3082V96.6063C447.135 98.0234 447.302 99.1487 447.635 99.9823C447.969 100.788 448.525 101.441 449.303 101.941C450.108 102.414 451.095 102.733 452.262 102.9C453.429 103.039 455.027 103.108 457.055 103.108C459.917 103.108 462.279 102.608 464.141 101.608C466.03 100.58 467.433 99.1071 468.35 97.1898C469.295 95.2447 469.767 92.8829 469.767 90.1042C469.767 87.2978 469.239 84.8665 468.184 82.8103C467.128 80.7263 465.613 79.1286 463.64 78.0171C461.695 76.8778 459.361 76.3082 456.638 76.3082H447.135ZM462.598 76.3916C465.377 77.4475 467.489 79.0869 468.934 81.3098C470.406 83.5327 471.143 86.4642 471.143 90.1042C471.143 97.0508 468.35 101.497 462.765 103.442C466.35 103.025 469.059 101.636 470.893 99.2738C472.754 96.8841 473.685 93.6331 473.685 89.5207C473.685 85.714 472.699 82.6435 470.726 80.3095C468.781 77.9476 466.072 76.6417 462.598 76.3916ZM463.099 73.9742C469.434 72.3348 472.602 68.1529 472.602 61.4286C472.602 59.2334 472.24 57.2328 471.518 55.4267C470.795 53.5928 469.698 52.0923 468.225 50.9253C466.78 49.7582 464.988 49.0775 462.849 48.8829C465.127 49.8277 466.878 51.4393 468.1 53.7178C469.323 55.9685 469.934 58.6916 469.934 61.887C469.934 67.7222 467.656 71.7512 463.099 73.9742ZM398.951 68.264V74.6827C401.091 72.2653 402.73 70.5981 403.869 69.6811C405.009 68.7364 406.384 68.264 407.996 68.264C409.385 68.264 410.552 68.7642 411.497 69.7645C412.469 70.737 412.956 71.9735 412.956 73.474C412.956 75.03 412.525 76.336 411.663 77.3919C410.802 78.42 409.718 78.934 408.412 78.934C407.829 78.934 407.19 78.8229 406.495 78.6006C405.8 78.3783 405.217 78.0866 404.745 77.7253C404.467 77.503 404.175 77.2669 403.869 77.0168C403.564 76.7667 403.286 76.5722 403.036 76.4333C402.813 76.2943 402.563 76.2249 402.285 76.2249C401.758 76.2249 401.23 76.4333 400.702 76.8501C400.202 77.2391 399.618 77.7948 398.951 78.5173V98.6486C398.951 100.093 399.146 101.122 399.535 101.733C399.951 102.344 400.577 102.733 401.41 102.9C402.272 103.039 403.758 103.108 405.87 103.108V105.401H383.488V103.108H384.613C387.837 103.108 389.448 101.83 389.448 99.2738V80.5596C389.448 77.3641 387.461 75.169 383.488 73.9742V72.557L396.909 68.264H398.951ZM390.824 80.5596V99.5238C390.824 100.469 390.671 101.177 390.365 101.65C390.059 102.094 389.615 102.58 389.031 103.108C390.615 102.969 391.754 102.553 392.449 101.858C393.144 101.135 393.491 99.899 393.491 98.1484V80.5596C393.491 78.1699 393.074 76.4333 392.241 75.3496C391.407 74.2659 390.087 73.7241 388.281 73.7241C388.142 73.7241 387.837 73.7519 387.364 73.8074C386.892 73.863 386.572 73.8908 386.406 73.8908C389.351 75.169 390.824 77.3919 390.824 80.5596ZM401.744 74.6827C402.494 74.6827 403.244 74.9328 403.994 75.4329C405.717 76.7945 407.162 77.4753 408.329 77.4753C409.774 77.4753 410.83 76.5444 411.497 74.6827C410.719 75.0717 410.149 75.2662 409.788 75.2662C408.954 75.2662 408.121 74.9884 407.287 74.4326C406.231 73.5713 405.356 73.1406 404.661 73.1406C403.994 73.1406 403.022 73.6546 401.744 74.6827ZM331.928 76.3082V94.6473C331.928 96.6757 332.067 98.2596 332.345 99.3988C332.65 100.51 333.192 101.344 333.97 101.9C334.748 102.428 335.86 102.761 337.304 102.9C338.777 103.039 340.778 103.108 343.306 103.108C346.363 103.108 349.1 102.65 351.517 101.733C353.962 100.788 356.255 99.4127 358.394 97.6066C360.562 95.7727 362.924 93.3414 365.48 90.3126H368.814L363.604 105.401H312.297V103.108C314.77 103.053 316.645 102.844 317.923 102.483C319.229 102.094 320.146 101.469 320.674 100.608C321.23 99.7184 321.508 98.468 321.508 96.8563V55.6351C321.508 53.69 321.258 52.2729 320.758 51.3837C320.257 50.4946 319.41 49.8972 318.215 49.5915C317.02 49.2581 315.047 49.0219 312.297 48.8829V46.5906H361.562L366.605 59.8864H363.604C361.993 57.858 360.02 56.0241 357.686 54.3847C355.38 52.7175 352.782 51.3837 349.892 50.3834C347.03 49.3831 344.001 48.8829 340.806 48.8829C338.277 48.8829 336.374 49.1608 335.095 49.7165C333.817 50.2445 332.97 50.9947 332.553 51.9672C332.136 52.9398 331.928 54.218 331.928 55.8018V73.9742H340.305C347.613 73.9742 351.309 70.6259 351.392 63.9293H354.31V86.0196H351.726C351.392 82.6297 350.434 80.1705 348.85 78.6423C347.294 77.0862 344.904 76.3082 341.681 76.3082H331.928ZM359.436 103.108L362.312 95.856C360.673 97.6344 359.186 98.9681 357.853 99.8573C356.519 100.719 354.629 101.802 352.184 103.108H359.436ZM350.892 79.0174V70.8482C349.808 72.7099 347.836 74.0714 344.974 74.9328C346.502 75.3496 347.71 75.8497 348.6 76.4333C349.489 77.0168 350.253 77.8782 350.892 79.0174ZM357.644 48.8829H350.1C352.184 49.5776 354.032 50.4112 355.644 51.3837C357.255 52.3563 358.964 53.5233 360.77 54.8848L357.644 48.8829ZM322.883 55.9685V96.2728C322.883 98.3012 322.647 99.7878 322.175 100.733C321.702 101.677 320.994 102.469 320.049 103.108C322.355 103.081 323.842 102.483 324.509 101.316C325.203 100.121 325.551 98.204 325.551 95.5643V55.2183C325.551 52.8564 325.148 51.3004 324.342 50.5501C323.536 49.7721 322.105 49.3553 320.049 49.2997C321.077 49.8555 321.8 50.6057 322.216 51.5504C322.661 52.4674 322.883 53.9401 322.883 55.9685ZM272.115 84.2274H274.865C276.394 88.6176 278.228 92.3133 280.367 95.3142C282.535 98.2873 284.883 100.496 287.411 101.941C289.967 103.386 292.635 104.109 295.414 104.109C298.887 104.109 301.86 103.025 304.333 100.858C306.806 98.6903 308.043 95.9116 308.043 92.5216C308.043 89.354 307.223 86.8949 305.583 85.1443C303.944 83.366 301.985 82.1295 299.707 81.4348C297.428 80.7124 294.427 80.0455 290.704 79.4342C286.98 78.8229 284.341 78.2533 282.785 77.7253C280.367 76.8917 278.311 75.7525 276.616 74.3076C274.921 72.8349 273.629 71.0844 272.74 69.0559C271.878 66.9997 271.448 64.8046 271.448 62.4705C271.448 60.2476 271.837 58.1081 272.615 56.0519C273.393 53.9957 274.49 52.1756 275.907 50.5918C277.325 49.008 279.047 47.7576 281.076 46.8406C283.132 45.9237 285.41 45.4652 287.911 45.4652C289.717 45.4652 291.926 45.7292 294.538 46.2571C297.178 46.7573 299.095 47.0074 300.29 47.0074C301.791 47.0074 303.208 46.6739 304.541 46.007H307.709L309.501 63.1374H306.584C303.861 58.0247 300.999 54.1346 297.998 51.4671C295.025 48.7718 291.524 47.4242 287.494 47.4242C285.494 47.4242 283.632 47.8965 281.909 48.8413C280.187 49.7582 278.797 51.0364 277.741 52.6758C276.713 54.3152 276.199 56.1213 276.199 58.0942C276.199 60.8728 277.144 62.9985 279.033 64.4712C280.923 65.9439 283.715 67.0553 287.411 67.8056C291.134 68.5558 294.455 69.1949 297.373 69.7228C300.318 70.2508 302.652 70.9315 304.375 71.7651C307.542 73.3212 310.002 75.4746 311.752 78.2255C313.503 80.9764 314.378 84.0884 314.378 87.5618C314.378 90.8961 313.572 94.0082 311.96 96.898C310.349 99.7878 308.084 102.108 305.167 103.859C302.249 105.581 298.998 106.443 295.414 106.443C293.385 106.443 291.857 106.29 290.829 105.984C289.801 105.679 288.036 105.081 285.536 104.192C283.035 103.303 281.117 102.858 279.784 102.858C277.561 102.858 275.796 103.706 274.49 105.401H272.115V84.2274ZM304.917 57.2606L303.541 49.2997C302.624 49.6054 301.707 49.7582 300.79 49.7582C299.79 49.7582 298.706 49.6054 297.539 49.2997C298.651 50.0222 299.623 50.828 300.457 51.7172C301.29 52.6063 302.166 53.6761 303.083 54.9265C304 56.1769 304.611 56.9549 304.917 57.2606ZM273.49 91.9798V103.108C274.296 102.052 275.032 101.372 275.699 101.066C276.394 100.76 277.45 100.635 278.867 100.691C277.95 99.6072 277.283 98.8153 276.866 98.3151C276.477 97.7872 275.977 97.0231 275.366 96.0227C274.782 94.9946 274.157 93.647 273.49 91.9798ZM273.49 57.594C273.018 59.7058 272.782 61.4147 272.782 62.7206C272.782 64.1933 273.032 65.6799 273.532 67.1804C274.032 68.653 274.768 70.0563 275.741 71.39C276.713 72.696 277.811 73.7658 279.033 74.5994C280.673 75.7108 282.479 76.5027 284.452 76.9751C286.425 77.4197 289.301 77.9615 293.08 78.6006C296.886 79.2119 299.512 79.8093 300.957 80.3928C303.625 81.3654 305.695 82.8519 307.167 84.8526C308.668 86.8532 309.418 89.2012 309.418 91.8965C309.418 93.8971 308.848 96.0089 307.709 98.2318C309.988 95.8699 311.127 93.1052 311.127 89.9375C311.127 86.6587 310.279 84.0884 308.584 82.2267C306.917 80.3373 304.833 78.9479 302.332 78.0588C299.859 77.1418 296.47 76.3082 292.163 75.558C287.856 74.78 285.647 74.3771 285.536 74.3493C281.59 73.3212 278.589 71.5428 276.533 69.0143C274.504 66.4857 273.49 63.5681 273.49 60.2615C273.49 59.6502 273.476 59.1362 273.448 58.7194C273.448 58.3026 273.462 57.9275 273.49 57.594ZM219.596 46.5906H272.571L275.572 60.3449H272.571C270.431 56.7604 268.194 54.1346 265.86 52.4674C263.526 50.8002 261.317 49.7999 259.233 49.4665C257.177 49.133 254.482 48.9385 251.147 48.8829V96.2728C251.147 98.1067 251.439 99.51 252.023 100.482C252.606 101.427 253.565 102.08 254.898 102.441C256.232 102.803 258.094 103.025 260.484 103.108V105.401H231.266V103.108C233.683 103.053 235.531 102.872 236.809 102.566C238.115 102.233 239.088 101.566 239.727 100.566C240.394 99.5377 240.727 97.94 240.727 95.7727V48.8829C237.726 48.9107 235.114 49.2164 232.892 49.7999C230.669 50.3556 228.807 51.1198 227.306 52.0923C225.806 53.0648 224.556 54.1068 223.555 55.2183C222.583 56.3019 221.138 58.0108 219.221 60.3449H216.678L219.596 46.5906ZM270.862 55.5517L268.986 48.8829H261.15C263.262 49.5498 265.027 50.4112 266.444 51.4671C267.861 52.523 269.334 53.8845 270.862 55.5517ZM244.77 94.814V53.8428C244.77 52.2312 244.576 51.0225 244.187 50.2167C243.825 49.4109 243.131 48.9663 242.103 48.8829V96.2728C242.103 97.9956 241.894 99.371 241.478 100.399C241.061 101.427 240.283 102.33 239.143 103.108H240.06C242.089 103.108 243.381 102.469 243.937 101.191C244.492 99.9129 244.77 97.7872 244.77 94.814ZM227.348 48.8829H220.596L218.97 55.9685C220.388 54.1068 221.624 52.7314 222.68 51.8422C223.736 50.9253 225.292 49.9388 227.348 48.8829Z" fill="#0D0C0C"/>
<g filter="url(#filter0_b_0_36)">
<path d="M110.406 88.2932C126.119 90.2693 151.917 79.3948 151.917 20.6897L195.579 60.2586L223.119 141.724L106.911 87.6078L110.406 88.2932Z" fill="#4B2F2F"/>
<path d="M178.575 101.768L195.527 61.6659L222.272 140.778L110.848 88.8894L178.018 102.064L178.575 101.768ZM152.414 21.8147L194.98 60.3908L177.812 101.004L116.168 88.9138C123.059 88.3586 130.847 85.2522 137.433 77.5724C145.846 67.7635 152.251 50.5521 152.414 21.8147Z" stroke="#D9CDCD" stroke-linecap="square" stroke-linejoin="bevel"/>
</g>
<g filter="url(#filter1_b_0_36)">
<path d="M71.0642 88.6566C84.054 90.734 105.38 79.3019 105.38 17.5862L141.474 59.1844L164.241 144.828L68.1754 87.936L71.0642 88.6566Z" fill="#4B2F2F"/>
<path d="M127.511 102.775L141.421 60.9299L163.443 143.774L71.374 89.2492L126.915 103.103L127.511 102.775ZM105.877 18.9215L140.91 59.2969L126.708 102.02L75.6986 89.2972C81.4838 88.7497 88.0141 85.4692 93.5078 77.3234C100.442 67.0417 105.725 49.0177 105.877 18.9215Z" stroke="#512A2A" stroke-linecap="square" stroke-linejoin="bevel"/>
</g>
<defs>
<filter id="filter0_b_0_36" x="102.911" y="16.6897" width="124.208" height="129.034" filterUnits="userSpaceOnUse" color-interpolation-filters="sRGB">
<feFlood flood-opacity="0" result="BackgroundImageFix"/>
<feGaussianBlur in="BackgroundImageFix" stdDeviation="2"/>
<feComposite in2="SourceAlpha" operator="in" result="effect1_backgroundBlur_0_36"/>
<feBlend mode="normal" in="SourceGraphic" in2="effect1_backgroundBlur_0_36" result="shape"/>
</filter>
<filter id="filter1_b_0_36" x="64.1754" y="13.5862" width="104.065" height="135.241" filterUnits="userSpaceOnUse" color-interpolation-filters="sRGB">
<feFlood flood-opacity="0" result="BackgroundImageFix"/>
<feGaussianBlur in="BackgroundImageFix" stdDeviation="2"/>
<feComposite in2="SourceAlpha" operator="in" result="effect1_backgroundBlur_0_36"/>
<feBlend mode="normal" in="SourceGraphic" in2="effect1_backgroundBlur_0_36" result="shape"/>
</filter>
</defs>
</svg>
